<mxfile host="app.diagrams.net" modified="2023-09-23T09:20:19.213Z" agent="Mozilla/5.0 (Windows NT 10.0; Win64; x64) AppleWebKit/537.36 (KHTML, like Gecko) Chrome/116.0.0.0 Safari/537.36" etag="Zon4Mw4bKKq2IZR25Blk" version="21.8.1" type="github">
  <diagram name="Page-1" id="kioAAZJ0w7iLisG0PiT4">
    <mxGraphModel dx="1434" dy="750" grid="1" gridSize="10" guides="1" tooltips="1" connect="1" arrows="1" fold="1" page="1" pageScale="1" pageWidth="1600" pageHeight="900" math="0" shadow="0">
      <root>
        <mxCell id="0" />
        <mxCell id="1" parent="0" />
        <mxCell id="V3Nmcimox3BmdhHoZZpZ-2" value="Application Gateway" style="image;aspect=fixed;html=1;points=[];align=center;fontSize=12;image=img/lib/azure2/networking/Application_Gateways.svg;" vertex="1" parent="1">
          <mxGeometry x="260" y="220" width="64" height="64" as="geometry" />
        </mxCell>
        <mxCell id="V3Nmcimox3BmdhHoZZpZ-3" value="" style="image;aspect=fixed;html=1;points=[];align=center;fontSize=12;image=img/lib/azure2/compute/Automanaged_VM.svg;" vertex="1" parent="1">
          <mxGeometry x="480" y="130" width="68" height="62" as="geometry" />
        </mxCell>
        <mxCell id="V3Nmcimox3BmdhHoZZpZ-4" value="Vitual Machine" style="image;aspect=fixed;html=1;points=[];align=center;fontSize=12;image=img/lib/azure2/compute/Automanaged_VM.svg;" vertex="1" parent="1">
          <mxGeometry x="480" y="330" width="68" height="62" as="geometry" />
        </mxCell>
        <mxCell id="V3Nmcimox3BmdhHoZZpZ-5" value="&lt;font color=&quot;#0000ff&quot;&gt;Azure SQL Database&lt;/font&gt;" style="verticalLabelPosition=bottom;html=1;verticalAlign=top;align=center;strokeColor=none;fillColor=#00BEF2;shape=mxgraph.azure.sql_database_sql_azure;" vertex="1" parent="1">
          <mxGeometry x="710" y="240" width="47.5" height="50" as="geometry" />
        </mxCell>
        <mxCell id="V3Nmcimox3BmdhHoZZpZ-6" value="Vitual Machine" style="text;html=1;align=center;verticalAlign=middle;resizable=0;points=[];autosize=1;strokeColor=none;fillColor=none;" vertex="1" parent="1">
          <mxGeometry x="464" y="100" width="100" height="30" as="geometry" />
        </mxCell>
        <mxCell id="V3Nmcimox3BmdhHoZZpZ-8" value="" style="endArrow=classic;html=1;rounded=0;exitX=0.516;exitY=-0.031;exitDx=0;exitDy=0;exitPerimeter=0;entryX=-0.088;entryY=0.484;entryDx=0;entryDy=0;entryPerimeter=0;fillColor=#d5e8d4;strokeColor=#3B63B3;shadow=0;" edge="1" parent="1" source="V3Nmcimox3BmdhHoZZpZ-2" target="V3Nmcimox3BmdhHoZZpZ-3">
          <mxGeometry width="50" height="50" relative="1" as="geometry">
            <mxPoint x="290" y="210" as="sourcePoint" />
            <mxPoint x="340" y="180" as="targetPoint" />
            <Array as="points">
              <mxPoint x="293" y="160" />
            </Array>
          </mxGeometry>
        </mxCell>
        <mxCell id="V3Nmcimox3BmdhHoZZpZ-9" value="" style="endArrow=classic;html=1;rounded=0;fillColor=#d5e8d4;strokeColor=#3B63B3;shadow=0;" edge="1" parent="1">
          <mxGeometry width="50" height="50" relative="1" as="geometry">
            <mxPoint x="290" y="280" as="sourcePoint" />
            <mxPoint x="480" y="360" as="targetPoint" />
            <Array as="points">
              <mxPoint x="290" y="360" />
            </Array>
          </mxGeometry>
        </mxCell>
        <mxCell id="V3Nmcimox3BmdhHoZZpZ-10" value="" style="endArrow=classic;html=1;rounded=0;exitX=1.059;exitY=0.5;exitDx=0;exitDy=0;exitPerimeter=0;entryX=-0.088;entryY=0.484;entryDx=0;entryDy=0;entryPerimeter=0;fillColor=#d5e8d4;strokeColor=#3B63B3;shadow=0;" edge="1" parent="1" source="V3Nmcimox3BmdhHoZZpZ-3">
          <mxGeometry width="50" height="50" relative="1" as="geometry">
            <mxPoint x="548" y="292" as="sourcePoint" />
            <mxPoint x="729" y="234" as="targetPoint" />
            <Array as="points">
              <mxPoint x="729" y="160" />
            </Array>
          </mxGeometry>
        </mxCell>
        <mxCell id="V3Nmcimox3BmdhHoZZpZ-11" value="" style="endArrow=classic;html=1;rounded=0;exitX=0.971;exitY=0.452;exitDx=0;exitDy=0;exitPerimeter=0;entryX=0.421;entryY=1.4;entryDx=0;entryDy=0;entryPerimeter=0;fillColor=#d5e8d4;strokeColor=#3B63B3;shadow=0;" edge="1" parent="1" source="V3Nmcimox3BmdhHoZZpZ-4" target="V3Nmcimox3BmdhHoZZpZ-5">
          <mxGeometry width="50" height="50" relative="1" as="geometry">
            <mxPoint x="564" y="342" as="sourcePoint" />
            <mxPoint x="745" y="284" as="targetPoint" />
            <Array as="points">
              <mxPoint x="730" y="358" />
            </Array>
          </mxGeometry>
        </mxCell>
      </root>
    </mxGraphModel>
  </diagram>
</mxfile>
